<?xml version="1.0" standalone="no"?>
<!DOCTYPE svg PUBLIC "-//W3C//DTD SVG 20010904//EN"
 "http://www.w3.org/TR/2001/REC-SVG-20010904/DTD/svg10.dtd">
<svg version="1.0" xmlns="http://www.w3.org/2000/svg"
 width="100.000000pt" height="100.000000pt" viewBox="0 0 100.000000 100.000000"
 preserveAspectRatio="xMidYMid meet">
<metadata>
Created by potrace 1.14, written by Peter Selinger 2001-2017
</metadata>
<g transform="translate(0.000000,100.000000) scale(0.100000,-0.100000)"
fill="#000000" stroke="none">
<path d="M145 951 c-43 -19 -90 -68 -107 -110 -7 -16 -12 -146 -12 -331 -2
-331 1 -356 53 -414 57 -63 74 -66 411 -66 183 0 320 4 343 11 47 13 99 58
123 107 16 33 18 70 19 342 1 184 -3 319 -9 340 -15 49 -82 116 -131 129 -25
7 -154 11 -345 11 -274 0 -309 -2 -345 -19z"/>
</g>
</svg>
