<?xml version="1.0" encoding="utf-8"?>
<!-- Generator: Adobe Illustrator 27.8.1, SVG Export Plug-In . SVG Version: 6.00 Build 0)  -->
<svg version="1.1" id="Vrstva_1" xmlns="http://www.w3.org/2000/svg" xmlns:xlink="http://www.w3.org/1999/xlink" x="0px" y="0px"
	 viewBox="0 0 133 131.3" style="enable-background:new 0 0 133 131.3;" xml:space="preserve">
<style type="text/css">
	.st0{fill:#333333;}
</style>
<g>
	<path class="st0" d="M7,70.8c0-3.3,0-6.5,0-9.8c0.2-1,0.4-2,0.5-3c2.3-15.9,9.7-29,22.3-39C44.1,7.7,60.5,3.7,78.4,7.2
		c16.8,3.3,29.9,12.4,39.1,26.8c8.1,12.7,10.8,26.6,8.5,41.5c-1.8,11.5-6.7,21.6-14.4,30.2c-9.6,10.7-21.5,17.2-35.8,19.4
		c-1.5,0.2-3.1,0.5-4.7,0.7c-3,0-6.1,0-9.1,0c-1-0.2-2.1-0.4-3.1-0.5c-11.9-1.7-22.4-6.4-31.3-14.3c-11-9.7-17.7-21.8-19.9-36.2
		C7.5,73.5,7.2,72.1,7,70.8z M119.3,65.9c0-28.9-23.6-52.4-52.4-52.4C38,13.5,14.5,37,14.5,65.9s23.6,52.4,52.4,52.4
		C95.8,118.3,119.3,94.8,119.3,65.9z"/>
	<path class="st0" d="M70.6,52.8c0,11.7,0,23.5,0,35.2c0,1.5-0.5,2.8-1.8,3.6c-2.4,1.5-5.6-0.2-5.7-3.1c-0.1-1.5,0-3,0-4.4
		c0-10.1,0-20.1,0-30.2c0-0.4,0-0.8,0-1.5c-0.5,0.5-0.7,0.8-1,1.1c-3.7,3.7-7.3,7.3-11,11c-1.8,1.8-4,1.9-5.6,0.3s-1.4-3.8,0.3-5.6
		c6-6,12.1-12.1,18.1-18.1c1.9-1.9,4-1.9,5.8,0c6.1,6.1,12.1,12.1,18.2,18.2c1.7,1.7,1.8,4,0.2,5.6c-1.6,1.5-3.8,1.4-5.5-0.3
		c-3.7-3.7-7.4-7.4-11.1-11.1c-0.3-0.3-0.5-0.6-0.7-0.9C70.8,52.6,70.7,52.7,70.6,52.8z"/>
</g>
</svg>
